#!OML:ASF I:\Random Stuff\random\construction\7_22_03\Session 2\subj1.ASF
:FULLY-SPECIFIED
:DEGREES
1160
root -8.55254 17.547 -5.73639 -141.192 61.3685 -156.973
lowerback 15.7932 1.68522 -7.86313
upperback 6.71535 1.94453 -9.80517
thorax -1.48028 1.43398 -6.38038
lowerneck -19.4831 -4.09054 0.449589
upperneck 43.8297 -6.25417 6.07596
head 21.2371 -0.750271 1.91881
rclavicle 6.36111e-014 3.81667e-014
rhumerus -5.33367 63.0885 -58.6646
rradius 69.0997
rwrist -66.4617
rhand -18.9375 -12.8152
rfingers 7.12502
rthumb 7.3655 -42.667
lclavicle 6.36111e-014 3.81667e-014
lhumerus 33.2514 -74.8499 63.8084
lradius 34.9641
lwrist -1.66261
lhand -19.1845 58.4518
lfingers 7.12502
lthumb 7.1271 88.3118
rfemur -8.10503 -10.3532 26.743
rtibia -2.22639e-014
rfoot -4.6851 -15.4814
rtoes -14.0398
lfemur -41.3613 -11.205 0.166076
ltibia 36.9731
lfoot -15.2283 -5.43689
ltoes -31.7976
1161
root -8.55647 17.5477 -5.73744 -141.151 61.3973 -156.975
lowerback 15.7948 1.69086 -7.76732
upperback 6.72825 1.96466 -9.78821
thorax -1.46547 1.44413 -6.41865
lowerneck -19.5041 -4.12731 0.401228
upperneck 43.798 -6.29916 6.06912
head 21.225 -0.779001 1.91087
rclavicle -9.22361e-014 6.04305e-014
rhumerus -4.88496 63.2825 -58.0717
rradius 69.2603
rwrist -66.0874
rhand -18.9643 -12.833
rfingers 7.12502
rthumb 7.33962 -42.6857
lclavicle -9.22361e-014 6.04305e-014
lhumerus 33.5554 -74.8649 63.5553
lradius 35.0066
lwrist -1.60883
lhand -19.1732 58.5527
lfingers 7.12502
lthumb 7.13793 88.4123
rfemur -8.14484 -10.3299 26.7196
rtibia -2.54444e-014
rfoot -4.85649 -15.4028
rtoes -13.4295
lfemur -41.3968 -11.1981 0.158981
ltibia 36.9385
lfoot -15.2661 -5.38143
ltoes -32.3743
1162
root -8.55891 17.5468 -5.73874 -141.082 61.3746 -156.944
lowerback 15.8266 1.66739 -7.63568
upperback 6.72951 1.94564 -9.78674
thorax -1.48027 1.43618 -6.48982
lowerneck -19.5322 -4.10045 0.45462
upperneck 43.7869 -6.27898 6.06328
head 21.2212 -0.762758 1.90199
rclavicle 3.81667e-014 1.20861e-013
rhumerus -4.48702 63.4276 -57.6905
rradius 69.2697
rwrist -65.9297
rhand -19.0551 -12.7838
rfingers 7.12502
rthumb 7.25201 -42.6395
lclavicle 3.81667e-014 1.20861e-013
lhumerus 33.714 -74.8399 63.4121
lradius 35.0159
lwrist -1.56251
lhand -19.1136 58.6325
lfingers 7.12502
lthumb 7.19547 88.4902
rfemur -8.16694 -10.3348 26.7474
rtibia 3.18055e-015
rfoot -5.05075 -15.3175
rtoes -13.0173
lfemur -41.4467 -11.2679 0.230077
ltibia 36.9071
lfoot -15.2543 -5.38007
ltoes -32.0499
1163
root -8.55872 17.5464 -5.74169 -141.14 61.3329 -157.053
lowerback 15.9048 1.62674 -7.49733
upperback 6.70586 1.89732 -9.82511
thorax -1.54638 1.41626 -6.60784
lowerneck -19.5362 -4.09347 0.496157
upperneck 43.823 -6.28958 6.09202
head 21.2507 -0.752161 1.91042
rclavicle 3.49861e-014 -1.94014e-013
rhumerus -4.39864 63.4839 -57.6742
rradius 69.2757
rwrist -65.772
rhand -19.3653 -12.8588
rfingers 7.12502
rthumb 6.95254 -42.7247
lclavicle 3.49861e-014 -1.94014e-013
lhumerus 33.9082 -74.8973 63.2116
lradius 34.9871
lwrist -1.52135
lhand -19.0581 58.764
lfingers 7.12502
lthumb 7.24904 88.6199
rfemur -8.20623 -10.3992 26.7265
rtibia 0
rfoot -5.09499 -15.3144
rtoes -13.1765
lfemur -41.4977 -11.4222 0.258357
ltibia 36.8562
lfoot -15.2031 -5.33211
ltoes -31.323
1164
root -8.55402 17.5527 -5.74512 -141.319 61.371 -157.339
lowerback 15.9129 1.62116 -7.47082
upperback 6.67578 1.89186 -9.89524
thorax -1.57958 1.41763 -6.70171
lowerneck -19.4859 -4.14484 0.531387
upperneck 43.8417 -6.37424 6.08466
head 21.252 -0.777697 1.88242
rclavicle -2.8625e-014 7.63333e-014
rhumerus -4.58423 63.5284 -57.8532
rradius 69.4031
rwrist -65.1944
rhand -19.8394 -12.9914
rfingers 7.12502
rthumb 6.49483 -42.8718
lclavicle -2.8625e-014 7.63333e-014
lhumerus 34.1169 -75.0216 63.0217
lradius 34.932
lwrist -1.46754
lhand -19.0557 58.8569
lfingers 7.12502
lthumb 7.25141 88.7126
rfemur -8.27345 -10.4516 26.5898
rtibia -1.59028e-015
rfoot -5.08401 -15.2903
rtoes -12.9134
lfemur -41.5526 -11.6012 0.195132
ltibia 36.7589
lfoot -15.1103 -5.28163
ltoes -30.2363
1165
root -8.54825 17.5626 -5.74771 -141.549 61.3973 -157.668
lowerback 15.938 1.60513 -7.47949
upperback 6.65873 1.87006 -9.97252
thorax -1.60885 1.4117 -6.78149
lowerneck -19.4359 -4.18735 0.560488
upperneck 43.8408 -6.47184 6.13915
head 21.246 -0.801274 1.88416
rclavicle 8.5875e-014 1.90833e-014
rhumerus -4.7448 63.5787 -58.0609
rradius 69.5608
rwrist -64.5623
rhand -20.2503 -13.1392
rfingers 7.12502
rthumb 6.09813 -43.0314
lclavicle 8.5875e-014 1.90833e-014
lhumerus 34.031 -75.0629 63.0902
lradius 34.8953
lwrist -1.41738
lhand -19.0476 58.8719
lfingers 7.12502
lthumb 7.25921 88.7274
rfemur -8.32584 -10.5242 26.4548
rtibia -6.36111e-015
rfoot -5.06889 -15.2397
rtoes -13.0152
lfemur -41.6204 -11.9507 0.211806
ltibia 36.6313
lfoot -14.9631 -5.23889
ltoes -28.2651
1166
root -8.54422 17.57 -5.75168 -141.838 61.4315 -158.141
lowerback 15.9292 1.56896 -7.56208
upperback 6.62998 1.81537 -10.0664
thorax -1.63534 1.38906 -6.83063
lowerneck -19.4162 -4.17852 0.616436
upperneck 43.8374 -6.50959 6.21921
head 21.245 -0.793009 1.90845
rclavicle -3.49861e-014 -9.22361e-014
rhumerus -4.87411 63.5828 -58.2933
rradius 69.7498
rwrist -64.4811
rhand -20.6783 -13.2532
rfingers 7.12502
rthumb 5.68496 -43.1569
lclavicle -3.49861e-014 -9.22361e-014
lhumerus 33.7268 -75.052 63.3622
lradius 34.8908
lwrist -1.43967
lhand -19.0303 58.928
lfingers 7.12502
lthumb 7.27586 88.7829
rfemur -8.47133 -10.6257 26.2738
rtibia 5.08889e-014
rfoot -4.98098 -15.2363
rtoes -13.9935
lfemur -41.7578 -12.286 0.145511
ltibia 36.5163
lfoot -14.8714 -5.12988
ltoes -27.2528
1167
root -8.53937 17.5726 -5.75545 -141.981 61.3898 -158.443
lowerback 15.9194 1.55363 -7.54067
upperback 6.6106 1.80064 -10.1231
thorax -1.64897 1.38526 -6.90373
lowerneck -19.3871 -4.1704 0.717885
upperneck 43.7949 -6.55976 6.2756
head 21.2086 -0.786584 1.90636
rclavicle 1.20861e-013 8.5875e-014
rhumerus -5.14895 63.5458 -58.6083
rradius 69.9756
rwrist -64.5935
rhand -21.2821 -13.3904
rfingers 7.12502
rthumb 5.10202 -43.309
lclavicle 1.20861e-013 8.5875e-014
lhumerus 33.6459 -75.134 63.465
lradius 34.8956
lwrist -1.47075
lhand -18.9957 59.0645
lfingers 7.12502
lthumb 7.3093 88.9182
rfemur -8.59617 -10.7373 26.1983
rtibia 7.95139e-015
rfoot -4.94093 -15.2491
rtoes -14.597
lfemur -41.8875 -12.4861 0.122751
ltibia 36.437
lfoot -14.8287 -5.02295
ltoes -27.5933
1168
root -8.52811 17.5703 -5.75516 -141.875 61.1394 -158.282
lowerback 16.0035 1.56151 -7.24996
upperback 6.64852 1.84444 -10.0797
thorax -1.64741 1.40989 -7.03161
lowerneck -19.3188 -4.24276 0.723736
upperneck 43.7169 -6.73904 6.4184
head 21.156 -0.836035 1.93532
rclavicle -3.81667e-014 2.8625e-014
rhumerus -5.54026 63.5429 -58.9625
rradius 70.1259
rwrist -64.2
rhand -22.0183 -13.4934
rfingers 7.12502
rthumb 4.39105 -43.4279
lclavicle -3.81667e-014 2.8625e-014
lhumerus 34.0123 -75.3613 63.143
lradius 34.9389
lwrist -1.46813
lhand -18.9635 59.1999
lfingers 7.12502
lthumb 7.3404 89.0526
rfemur -8.48622 -10.8885 26.4078
rtibia -4.13472e-014
rfoot -5.13899 -15.2286
rtoes -13.8861
lfemur -41.8903 -12.6132 0.364431
ltibia 36.4047
lfoot -14.8076 -5.05471
ltoes -27.6987
1169
root -8.51359 17.5701 -5.7531 -141.84 60.9344 -158.271
lowerback 16.0005 1.56395 -7.0975
upperback 6.66821 1.87248 -10.0616
thorax -1.62093 1.42554 -7.10209
lowerneck -19.2199 -4.33863 0.71044
upperneck 43.6633 -6.9538 6.58723
head 21.1188 -0.898054 1.97525
rclavicle 8.26944e-014 -2.8625e-014
rhumerus -5.89576 63.6063 -59.3416
rradius 70.1667
rwrist -63.4035
rhand -22.689 -13.5065
rfingers 7.12502
rthumb 3.74341 -43.4534
lclavicle 8.26944e-014 -2.8625e-014
lhumerus 34.7383 -75.6895 62.3651
lradius 35.0239
lwrist -1.40231
lhand -19.0592 59.1828
lfingers 7.12502
lthumb 7.24797 89.0386
rfemur -8.41448 -11.0412 26.543
rtibia -3.18055e-015
rfoot -5.42483 -15.2107
rtoes -12.5212
lfemur -41.9513 -12.5918 0.477842
ltibia 36.4182
lfoot -14.8351 -5.23245
ltoes -27.3791
1170
root -8.49969 17.5715 -5.75665 -141.946 60.8187 -158.436
lowerback 16.0382 1.5498 -7.04246
upperback 6.65214 1.85914 -10.117
thorax -1.65555 1.4234 -7.19614
lowerneck -19.1232 -4.38467 0.808145
upperneck 43.6644 -7.10328 6.70781
head 21.1078 -0.918975 1.98894
rclavicle -4.13472e-014 -2.8625e-014
rhumerus -6.32481 63.635 -59.8978
rradius 70.1662
rwrist -62.748
rhand -23.2499 -13.5696
rfingers 7.12502
rthumb 3.2018 -43.5253
lclavicle -4.13472e-014 -2.8625e-014
lhumerus 35.7306 -76.0838 61.1989
lradius 35.1592
lwrist -1.20083
lhand -19.1414 59.2128
lfingers 7.12502
lthumb 7.16868 89.0714
rfemur -8.37251 -11.1801 26.5389
rtibia 1.27222e-014
rfoot -5.56854 -15.2364
rtoes -11.8577
lfemur -42.0031 -12.6274 0.448814
ltibia 36.462
lfoot -14.9072 -5.25513
ltoes -27.9893
1171
root -8.48547 17.569 -5.76271 -141.848 60.6577 -158.393
lowerback 16.024 1.51495 -6.89025
upperback 6.67656 1.84419 -10.1538
thorax -1.61845 1.42076 -7.31986
lowerneck -19.172 -4.38187 0.937987
upperneck 43.6645 -7.19508 6.80048
head 21.1331 -0.915425 1.99416
rclavicle 4.77083e-014 -3.49861e-014
rhumerus -6.60839 63.5266 -60.3404
rradius 70.1762
rwrist -62.2975
rhand -23.6346 -13.6954
rfingers 7.12502
rthumb 2.83026 -43.6563
lclavicle 4.77083e-014 -3.49861e-014
lhumerus 36.7668 -76.3079 60.0075
lradius 35.3288
lwrist -0.901319
lhand -19.0801 59.4328
lfingers 7.12502
lthumb 7.22782 89.2894
rfemur -8.37428 -11.2873 26.659
rtibia 1.90833e-014
rfoot -5.61797 -15.2745
rtoes -11.8859
lfemur -42.043 -12.6538 0.52581
ltibia 36.4921
lfoot -14.9928 -5.07733
ltoes -29.9009
1172
root -8.47103 17.5633 -5.76686 -141.753 60.4963 -158.338
lowerback 15.9733 1.49226 -6.83618
upperback 6.70232 1.83616 -10.1731
thorax -1.56239 1.41935 -7.36698
lowerneck -19.0946 -4.34318 1.02695
upperneck 43.63 -7.24526 7.01281
head 21.1059 -0.888555 2.07836
rclavicle 9.85972e-014 6.36111e-015
rhumerus -6.95146 63.369 -60.8293
rradius 70.1909
rwrist -61.7742
rhand -23.8284 -13.7542
rfingers 7.12502
rthumb 2.64312 -43.7176
lclavicle 9.85972e-014 6.36111e-015
lhumerus 36.891 -76.3859 59.7873
lradius 35.4198
lwrist -0.758374
lhand -19.1286 59.536
lfingers 7.12502
lthumb 7.18101 89.3942
rfemur -8.36376 -11.3906 26.7894
rtibia 2.8625e-014
rfoot -5.63392 -15.3095
rtoes -11.9223
lfemur -42.0512 -12.6027 0.575671
ltibia 36.5032
lfoot -15.0963 -4.96941
ltoes -31.5958
1173
root -8.45495 17.5626 -5.77118 -141.824 60.4465 -158.465
lowerback 15.9459 1.51421 -6.98829
upperback 6.68746 1.8524 -10.2265
thorax -1.56202 1.42911 -7.34195
lowerneck -18.9629 -4.33916 1.13909
upperneck 43.6199 -7.33837 7.19782
head 21.0789 -0.876795 2.13632
rclavicle 3.18055e-014 -9.85972e-014
rhumerus -7.41507 63.285 -61.4014
rradius 70.1578
rwrist -61.0994
rhand -24.1408 -13.6088
rfingers 7.12502
rthumb 2.34139 -43.5756
lclavicle 3.18055e-014 -9.85972e-014
lhumerus 36.5759 -76.5328 60.0342
lradius 35.3914
lwrist -0.915505
lhand -19.2235 59.396
lfingers 7.12502
lthumb 7.08939 89.2572
rfemur -8.32576 -11.4659 26.763
rtibia 1.59028e-015
rfoot -5.61377 -15.3134
rtoes -11.527
lfemur -42.0336 -12.5537 0.492459
ltibia 36.5044
lfoot -15.2119 -4.98907
ltoes -32.3143
